<svg id="Слой_2" data-name="Слой 2" xmlns="http://www.w3.org/2000/svg" width="160.153" height="40.102" viewBox="0 0 160.153 40.102">
  <g id="Layer_1" data-name="Layer 1">
    <path id="Контур_36" data-name="Контур 36" d="M78.781,0H15.071L4.751,9.152,0,40.1H146.768l8.3-7.017L160.153,0Z" fill="#e84430"/>
    <path id="Контур_37" data-name="Контур 37" d="M171.594,9.33l-.474,3.03-.861,4.629L168.2,28.125l-.105.088Z" transform="translate(-20.461 -1.136)" fill="#fff"/>
    <path id="Контур_38" data-name="Контур 38" d="M136.51,34.37ZM149.236,9.33l7.9,12.744.088.123Z" transform="translate(-16.617 -1.136)" fill="#fff"/>
    <path id="Контур_39" data-name="Контур 39" d="M167.75,9.33l-3.5,18.883-6.631,5.6-.422.369-.026.018-.176-.281-.018-.026-.105-.167-.193-.307L146.338,16.989,143.115,34.37h-6.6l4.646-25.04h8.071l7.9,12.744.088.123,1.186,1.915.026-.149L161.146,9.33Z" transform="translate(-16.617 -1.136)" fill="#fff"/>
    <path id="Контур_40" data-name="Контур 40" d="M40.611,9.33l-1.9,10.223L30.9,26.263H19.357l6.763-5.814h5.849l.922-4.953h-12.9l-3.5,18.874H9.88l3.434-18.514L20.551,9.33Z" transform="translate(-1.203 -1.136)" fill="#fff"/>
    <path id="Контур_41" data-name="Контур 41" d="M53.831,9.33l-7.237,6.526L43.16,34.37h6.6L53.278,15.5H65.319L72.9,9.348Zm12.1,7.457-.676,3.671H59.4L52.68,26.263h11.5l-1.5,8.106h6.569l4.391-23.713Z" transform="translate(-5.254 -1.136)" fill="#fff"/>
    <path id="Контур_42" data-name="Контур 42" d="M86.707,9.33,79.54,15.478h9.406L85.433,34.352H92l3.513-18.874h4l7.237-6.148Z" transform="translate(-9.682 -1.136)" fill="#fff"/>
    <path id="Контур_43" data-name="Контур 43" d="M113.925,9.33l-7.237,6.526L103.5,33.043l7.746-6.148,2.117-11.418h12.05l7.58-6.148Zm12.1,7.457L123.911,28.2H111.844l-7.58,6.148h19.085l7.2-6.526,3.179-17.153Z" transform="translate(-12.599 -1.136)" fill="#fff"/>
    <path id="Контур_44" data-name="Контур 44" d="M161.3,25.745l-.026.149L160.09,23.98Z" transform="translate(-19.487 -2.919)" fill="#fff"/>
  </g>
</svg>
